<svg version="1.2" xmlns="http://www.w3.org/2000/svg" xmlns:xlink="http://www.w3.org/1999/xlink" overflow="visible" preserveAspectRatio="none" viewBox="0 0 26 26" stroke-linecap="round" stroke="currentColor" height="24" width="24"><g transform="translate(1, 1)"><path d="M17.94 17.94A10.07 10.07 0 0 1 12 20c-7 0-11-8-11-8a18.45 18.45 0 0 1 5.06-5.94M9.9 4.24A9.12 9.12 0 0 1 12 4c7 0 11 8 11 8a18.5 18.5 0 0 1-2.16 3.19m-6.72-1.07a3 3 0 1 1-4.24-4.24" style="fill: transparent; stroke: rgb(79, 91, 100); stroke-width: 1px;" vector-effect="non-scaling-stroke"/><line y2="23" x2="23" y1="1" x1="1" style="fill: transparent; stroke: rgb(79, 91, 100); stroke-width: 1px;" vector-effect="non-scaling-stroke"/></g></svg>