<svg version="1.2" xmlns="http://www.w3.org/2000/svg" xmlns:xlink="http://www.w3.org/1999/xlink" overflow="visible" preserveAspectRatio="none" viewBox="0 0 26 26" xml:space="preserve" y="0px" x="0px" id="Layer_1" width="32" height="32"><g transform="translate(1, 1)"><style type="text/css">
	.st0{fill:none;stroke:#000000;stroke-linecap:round;stroke-linejoin:round;}
</style><path d="M10,13c1.6,2.1,4.6,2.6,6.8,1c0.2-0.1,0.4-0.3,0.5-0.5l2.9-2.9c1.9-1.9,1.8-5-0.1-6.9c-1.9-1.8-4.9-1.8-6.7,0  l-1.7,1.7" class="st0" style="fill: transparent; stroke: rgb(79, 91, 100); stroke-width: 1px;" vector-effect="non-scaling-stroke"/><path d="M13.9,11c-1.6-2.1-4.6-2.6-6.8-1c-0.2,0.1-0.4,0.3-0.5,0.5l-2.9,2.9c-1.9,1.9-1.8,5,0.1,6.9  c1.9,1.8,4.9,1.8,6.7,0l1.7-1.7" class="st0" style="fill: transparent; stroke: rgb(79, 91, 100); stroke-width: 1px;" vector-effect="non-scaling-stroke"/></g></svg>