<svg version="1.2" xmlns="http://www.w3.org/2000/svg" xmlns:xlink="http://www.w3.org/1999/xlink" overflow="visible" preserveAspectRatio="none" viewBox="0 0 26 26" stroke-linecap="round" stroke="currentColor" height="32" width="32"><g transform="translate(1, 1)"><line y2="4.21" x2="7.5" y1="9.4" x1="16.5" style="fill: transparent; stroke: rgb(79, 91, 100); stroke-width: 1px;" vector-effect="non-scaling-stroke"/><path d="M21 16V8a2 2 0 0 0-1-1.73l-7-4a2 2 0 0 0-2 0l-7 4A2 2 0 0 0 3 8v8a2 2 0 0 0 1 1.73l7 4a2 2 0 0 0 2 0l7-4A2 2 0 0 0 21 16z" style="fill: transparent; stroke: rgb(79, 91, 100); stroke-width: 1px;" vector-effect="non-scaling-stroke"/><polyline points="3.27 6.96 12 12.01 20.73 6.96" style="fill: transparent; stroke: rgb(79, 91, 100); stroke-width: 1px;" vector-effect="non-scaling-stroke"/><line y2="12" x2="12" y1="22.08" x1="12" style="fill: transparent; stroke: rgb(79, 91, 100); stroke-width: 1px;" vector-effect="non-scaling-stroke"/></g></svg>